<svg fill="none" height="46" viewBox="0 0 46 46" width="46" xmlns="http://www.w3.org/2000/svg"><g fill="currentColor"><path d="m11.5 21.16v-18.86001h-4.59995v18.86001c-2.76.92-4.6 3.45-4.6 6.44s1.84 5.52 4.6 6.44v9.66h4.59995v-9.66c2.76-.92 4.6-3.45 4.6-6.44s-1.84-5.52-4.6-6.44zm-2.29995 8.74c-1.38 0-2.3-.92-2.3-2.3s.92-2.3 2.3-2.3c1.37995 0 2.29995.92 2.29995 2.3s-.92 2.3-2.29995 2.3z"/><path d="m25.3001 7.35999v-5.06h-4.6v5.06c-2.76.92-4.6 3.45001-4.6 6.44001s1.84 5.52 4.6 6.44v23.46h4.6v-23.46c2.76-.92 4.6-3.45 4.6-6.44s-1.84-5.52001-4.6-6.44001zm-2.3 8.74001c-1.38 0-2.3-.92-2.3-2.3s.92-2.3 2.3-2.3 2.3.92 2.3 2.3-.92 2.3-2.3 2.3z"/><path d="m39.1001 25.76v-23.46001h-4.6v23.46001c-2.76.92-4.6 3.45-4.6 6.44s1.84 5.52 4.6 6.44v5.06h4.6v-5.06c2.76-.92 4.6-3.45 4.6-6.44s-1.84-5.52-4.6-6.44zm-2.3 8.74c-1.38 0-2.3-.92-2.3-2.3s.92-2.3 2.3-2.3 2.3.92 2.3 2.3-.92 2.3-2.3 2.3z"/></g></svg>