<svg fill="none" viewBox="0 0 48 48" xmlns="http://www.w3.org/2000/svg"><path clip-rule="evenodd" d="m32.6989 7.04642c.5207-.16445 1.0771.11928 1.2498.63735l1.7721 5.31623h1.2792c2.2091 0 4 1.7909 4 4v5c1.6569 0 3 1.3431 3 3v2c0 1.6569-1.3431 3-3 3h-7c-2.2091 0-4-1.7909-4-4s1.7909-4 4-4h5v-5c0-1.1046-.8954-2-2-2h-1.9769c-.0155.0004-.031.0004-.0464 0h-20.9767c-.4935 0-.9132-.36-.9883-.8477-.0752-.4877.2166-.9573.6872-1.1059l3.3136-1.0464h-6.0125c-1.10457 0-2 .8954-2 2v20c0 1.1046.89543 2 2 2h26c1.1046 0 2-.8954 2-2v-1c0-.5523.4477-1 1-1s1 .4477 1 1v1c0 2.2091-1.7909 4-4 4h-26c-2.20914 0-4-1.7909-4-4v-20c0-2.2091 1.79086-4 4-4h12c.0855 0 .1686.0107.2478.031zm.9137 5.95358-1.25-3.75003-11.8751 3.75003zm.3874 11c-1.1046 0-2 .8954-2 2s.8954 2 2 2h7c.5523 0 1-.4477 1-1v-2c0-.5523-.4477-1-1-1zm0 3c.5523 0 1-.4477 1-1s-.4477-1-1-1-1 .4477-1 1 .4477 1 1 1z" fill="currentColor" fill-rule="evenodd"/></svg>