<svg fill="none" height="46" viewBox="0 0 46 46" width="46" xmlns="http://www.w3.org/2000/svg"><g fill="#282828"><path d="m33.58 13.8001h2.3l-2.99 2.99 3.22 3.22 8.51-8.51-8.51-8.51002-3.22 3.22 2.99 2.99h-2.3c-4.6 0-8.74 2.30002-11.27 5.98002l-9.2 13.11c-1.61 2.53-4.59995 3.91-7.58995 3.91h-3.22v4.6h3.22c4.59995 0 8.73995-2.3 11.26995-5.98l9.2-13.11c1.84-2.53 4.6-3.91 7.59-3.91z"/><path d="m13.11 17.71.92 1.38 2.76-3.91c-2.53-3.91-6.89995-5.97999-11.26995-5.97999h-3.22v4.59999h3.22c2.99 0 5.74995 1.38 7.58995 3.91z"/><path d="m32.8901 29.2101 2.99 2.99h-2.3c-2.99 0-5.75-1.38-7.59-3.91l-.92-1.38-2.76 3.91c2.53 3.68 6.67 5.75 11.27 5.75h2.3l-2.99 2.99 3.22 3.22 8.51-8.51-8.51-8.51z"/></g></svg>