<svg fill="none" height="42" viewBox="0 0 42 42" width="42" xmlns="http://www.w3.org/2000/svg"><path d="m31.35 3.05998c-9.89-5.75-22.76997-2.299997-28.51997 7.59002-5.75 9.89-2.299997 22.77 7.58997 28.52 9.89 5.75 22.77 2.3 28.52-7.59 5.75-10.12 2.53-22.77002-7.59-28.52002zm-3.68 5.29c.23.92.46 2.07002.46 3.91002-.23 2.53-.92 5.52-2.53 8.74l-7.59-4.37c2.07-2.99 4.14-5.29 6.21-6.67002 1.38-.92 2.53-1.38 3.45-1.61zm-4.14-3.45c-.69.23-1.38.69-1.84 1.15-2.76 1.84-5.29 4.83002-7.59 8.28002l-5.74997-3.45c3.67997-4.60002 9.42997-6.90002 15.17997-5.98002zm-14.71997 24.15002v2.53c-3.91-4.6-5.29-11.04-2.99-16.79l5.97997 3.45c-1.83997 3.91-2.75997 7.59-2.98997 10.81zm5.05997 4.14c-.23-.92-.46-2.07-.46-3.91.23-2.53.92-5.52 2.53-8.74l7.59 4.37c-1.84 2.99-4.14 5.29-6.21 6.67-1.61 1.15-2.76 1.61-3.45 1.61zm3.68 3.68c.69-.46 1.38-.69 2.07-1.15 2.76-1.84 5.52-4.83 7.82-8.28l6.21 3.68c-3.68 4.83-10.12 7.13-16.1 5.75zm18.4-9.89-6.21-3.68c1.84-3.68 2.76-7.59 2.99-10.81 0-.92 0-1.84 0-2.76002 4.37 4.60002 5.75 11.27002 3.22 17.25002z" fill="currentColor"/></svg>