<svg viewBox="0 0 48 48" xmlns="http://www.w3.org/2000/svg"><path clip-rule="evenodd" d="m11 10c-2.20914 0-4 1.7909-4 4v20c0 2.2091 1.79086 4 4 4h14c.5523 0 1-.4477 1-1s-.4477-1-1-1h-14c-1.10457 0-2-.8954-2-2v-16h30v4c0 .5523.4477 1 1 1s1-.4477 1-1v-8c0-2.2091-1.7909-4-4-4zm28 4c0-1.1046-.8954-2-2-2h-26c-1.10457 0-2 .8954-2 2v2h30zm-27 0c0 .5523-.4477 1-1 1s-1-.4477-1-1 .4477-1 1-1 1 .4477 1 1zm2 1c.5523 0 1-.4477 1-1s-.4477-1-1-1-1 .4477-1 1 .4477 1 1 1zm4-1c0 .5523-.4477 1-1 1s-1-.4477-1-1 .4477-1 1-1 1 .4477 1 1zm10 17c0-3.3137 2.6863-6 6-6s6 2.6863 6 6-2.6863 6-6 6-6-2.6863-6-6zm6-8c-4.4183 0-8 3.5817-8 8s3.5817 8 8 8 8-3.5817 8-8-3.5817-8-8-8zm0 4c.5523 0 1 .4477 1 1v2h2c.5523 0 1 .4477 1 1s-.4477 1-1 1h-2v2c0 .5523-.4477 1-1 1s-1-.4477-1-1v-2h-2c-.5523 0-1-.4477-1-1s.4477-1 1-1h2v-2c0-.5523.4477-1 1-1z" fill="currentColor" fill-rule="evenodd"/></svg>