<svg width="42" height="42" viewBox="0 0 42 42" fill="none" xmlns="http://www.w3.org/2000/svg">
<rect width="42" height="42" rx="21" fill="#3275AD"/>
<path d="M15.0673 10.0962C14.5064 10.0962 14.0257 10.2965 13.625 10.6972C13.2244 11.0818 13.024 11.5625 13.024 12.1395C13.024 12.7004 13.2244 13.1811 13.625 13.5818C14.0257 13.9824 14.4984 14.1827 15.0433 14.1827C15.6042 14.1827 16.0849 13.9824 16.4856 13.5818C16.8862 13.1811 17.0865 12.7004 17.0865 12.1395C17.0865 11.5786 16.8862 11.0978 16.4856 10.6972C16.101 10.2965 15.6282 10.0962 15.0673 10.0962ZM24.9712 15.4808C24.1859 15.4808 23.5048 15.6651 22.9279 16.0337C22.4632 16.3382 22.0946 16.7468 21.8221 17.2597H21.774V15.7212H18.4087V27.0193H21.9183V21.4183C21.9183 20.8093 21.9503 20.3446 22.0144 20.0241C22.1106 19.5433 22.2869 19.1827 22.5433 18.9423C22.8478 18.6699 23.2805 18.5337 23.8414 18.5337C24.4023 18.5337 24.8269 18.6939 25.1154 19.0145C25.3558 19.2709 25.516 19.6555 25.5962 20.1683C25.6442 20.4728 25.6683 20.9215 25.6683 21.5145V27.0193H29.1779V20.8173C29.1779 19.6795 29.0737 18.7661 28.8654 18.077C28.625 17.2436 28.2164 16.6106 27.6394 16.1779C26.9984 15.7132 26.109 15.4808 24.9712 15.4808ZM13.3125 15.7212V27.0193H16.8221V15.7212H13.3125Z" fill="white"/>
</svg>
