<svg
  fill="none"
  height="44"
  viewBox="0 0 158 44"
  width="158"
  xmlns="http://www.w3.org/2000/svg"
>
  <path
    clip-rule="evenodd"
    d="m149.861 20.2039-.036.067-3.584-6.6099h-4.244l4.975 8.4885-5.288 9.1843h4.146l5.018-9.3004zm1.063 5.998 2.727 5.1319h4.349l-5.114-8.7673zm2.028-4.5777 4.7-7.9632h-4.244l-2.382 4.3931zm-149.7862-7.9632h-3.1658v17.6728h3.75721v-10.6802c0-1.2988.3363-2.3425 1.00889-3.131.69578-.7886 1.61189-1.1829 2.74833-1.1829 1.09005 0 1.95978.3943 2.60917 1.1829.6494.7885.9741 1.8322.9741 3.131v10.6802h3.7572l.0348-10.6802c0-1.2524.3479-2.2845 1.0437-3.0962.7189-.8118 1.6351-1.2177 2.7483-1.2177 1.0669 0 1.9482.4059 2.644 1.2177.6957.8117 1.0436 1.8438 1.0436 3.0962v10.6802h3.7572v-10.9933c0-1.4148-.2783-2.6672-.8349-3.7572-.5566-1.1133-1.3336-1.983-2.3309-2.6092-.974-.6262-2.0757-.9393-3.3049-.9393s-2.3309.3131-3.305.9393c-.9509.6262-1.7046 1.4843-2.2612 2.5744-.4639-1.0669-1.2177-1.925-2.2613-2.5744-1.0205-.6494-2.16855-.9741-3.44415-.9741-1.02048 0-1.94818.2551-2.78312.7654-.83494.5102-1.49593 1.2292-1.98297 2.1569zm27.617 17.6728c.9277.4407 1.9598.661 3.0963.661 1.2524 0 2.3772-.2667 3.3745-.8001.9973-.5567 1.7858-1.322 2.3656-2.2961v.2087c.0464.8349.3827 1.5307 1.0089 2.0874.6262.5334 1.4148.8001 2.3657.8001.719 0 1.4263-.1623 2.1221-.487.719-.3015 1.2988-.7074 1.7395-1.2177l-1.3568-2.296c-.5102.5798-.9625.8697-1.3568.8697-.2551 0-.4522-.0928-.5914-.2783-.1391-.2088-.2087-.4755-.2087-.8002v-8.3493c0-1.2524-.3131-2.3657-.9393-3.3398-.603-.9741-1.4612-1.7278-2.5744-2.2613-1.0901-.5566-2.3541-.8349-3.792-.8349-1.4148 0-2.702.2551-3.8616.7654-1.1596.5102-2.0873 1.1944-2.7831 2.0525-.6726.8581-1.0437 1.7742-1.1133 2.7483l3.3746 1.1829c.0232-.5798.2203-1.1481.5914-1.7047.3711-.5798.8813-1.0437 1.5307-1.3916.6494-.3478 1.38-.5218 2.1917-.5218 1.0205 0 1.8902.2667 2.6092.8002.7421.5102 1.1132 1.148 1.1132 1.9134 0 .4638-.1507.8465-.4522 1.148-.2783.3015-.6378.4754-1.0785.5218l-3.131.3131c-2.3425.2783-4.1283.9393-5.3575 1.983-1.206 1.0437-1.809 2.3425-1.809 3.8964 0 1.0204.2551 1.9366.7653 2.7483.5335.7886 1.2524 1.4148 2.1569 1.8786zm7.5145-3.7572c-.8582.8813-1.9482 1.322-3.2702 1.322-.9741 0-1.7858-.2319-2.4352-.6958-.6262-.487-.9393-1.0901-.9393-1.809 0-.7422.3363-1.3684 1.0088-1.8786.6726-.5103 1.6931-.8466 3.0615-1.0089l3.8616-.4175v1.0437c0 1.3915-.4291 2.5396-1.2872 3.4441zm15.7374 12.4197c-1.9946 0-3.8152-.4755-5.4619-1.4264s-2.8295-2.2033-3.5485-3.7572l2.9571-2.0178c.3943 1.1597 1.1248 2.1106 2.1917 2.8527 1.09.7654 2.3193 1.1481 3.6876 1.1481 1.6003 0 2.9107-.5219 3.9312-1.5655 1.0437-1.0437 1.5655-2.3657 1.5655-3.966v-2.7831c-.603 1.0205-1.3916 1.809-2.3657 2.3657-.9509.5566-2.0177.8349-3.2006.8349-1.4843 0-2.8063-.3943-3.9659-1.1828-1.1364-.7886-2.0294-1.8786-2.6787-3.2702-.6263-1.3916-.9394-2.9687-.9394-4.7313 0-1.809.3131-3.4325.9394-4.8705.6493-1.4379 1.5423-2.5512 2.6787-3.3397 1.1596-.8118 2.4816-1.2176 3.9659-1.2176 1.2061 0 2.2961.2783 3.2702.8349s1.7511 1.3452 2.3309 2.3657l.4522-2.6092h3.2702v17.6032c0 1.6699-.3827 3.1658-1.148 4.4878-.7654 1.3452-1.8438 2.3889-3.2354 3.131-1.3916.7422-2.9571 1.1133-4.6965 1.1133zm.6958-11.55c1.4379 0 2.5859-.5566 3.4441-1.6699.8813-1.1132 1.3219-2.5395 1.3219-4.279 0-1.809-.4406-3.2818-1.3219-4.4182-.8582-1.1596-2.0062-1.7395-3.4441-1.7395-1.438 0-2.586.5799-3.4442 1.7395-.8581 1.1364-1.2872 2.6092-1.2872 4.4182 0 1.7395.4291 3.1658 1.2872 4.279.8814 1.1133 2.0294 1.6699 3.4442 1.6699zm23.2572-14.2635c-1.2292-.7885-2.6555-1.1828-4.279-1.1828-1.6467 0-3.1078.3943-4.3834 1.1828-1.2524.7886-2.2265 1.8902-2.9223 3.305-.6958 1.4147-1.0437 3.015-1.0437 4.8009 0 1.8554.3827 3.5253 1.1481 5.0096.7885 1.4611 1.8786 2.6092 3.2701 3.4441 1.3916.8349 2.9687 1.2524 4.7313 1.2524 1.8091 0 3.4325-.4175 4.8705-1.2524 1.4611-.8581 2.4816-1.9946 3.0614-3.4093l-3.0266-1.322c-.4175.8813-1.0669 1.5771-1.9482 2.0873-.8581.5103-1.8206.7654-2.8875.7654-1.4379 0-2.6556-.4755-3.6528-1.4264-.9741-.9741-1.5539-2.2381-1.7395-3.792h12.5588c.0464-.5102.0696-.9509.0696-1.3219 0-1.8091-.3363-3.421-1.0089-4.8357-.6494-1.4148-1.5887-2.5164-2.8179-3.305zm-7.3752 3.2354c.7885-.8581 1.7742-1.2872 2.957-1.2872 1.2292.0232 2.2149.4639 2.9571 1.322.7653.8581 1.2176 1.9946 1.3568 3.4093h-8.6973c.1856-1.4379.661-2.586 1.4264-3.4441zm11.71-3.7572h3.8268l3.6528 13.8808 3.7225-13.8808h4.3486l3.8268 13.9156 3.583-13.9156h3.827l-5.01 17.6728h-4.6265l-3.7572-13.8808-3.6529 13.8808h-4.6617zm31.0885 17.151c1.322.7885 2.853 1.1828 4.592 1.1828s3.27-.3943 4.592-1.1828c1.322-.8118 2.343-1.9366 3.062-3.3746.742-1.4379 1.113-3.0846 1.113-4.94s-.371-3.5021-1.113-4.94c-.719-1.438-1.74-2.5512-3.062-3.3398-1.322-.8117-2.853-1.2176-4.592-1.2176s-3.27.4059-4.592 1.2176c-1.322.7886-2.343 1.9018-3.062 3.3398-.719 1.4379-1.078 3.0846-1.078 4.94s.359 3.5021 1.078 4.94c.719 1.438 1.74 2.5628 3.062 3.3746zm8.21-3.8616c-.904 1.1364-2.111 1.7047-3.618 1.7047-1.508 0-2.714-.5683-3.618-1.7047-.905-1.1596-1.357-2.644-1.357-4.453s.452-3.2818 1.357-4.4182c.904-1.1596 2.11-1.7395 3.618-1.7395 1.507 0 2.714.5799 3.618 1.7395.905 1.1364 1.357 2.6092 1.357 4.4182s-.452 3.2934-1.357 4.453zm7.362-13.2894h3.027l.487 2.8527c.371-1.0669.974-1.9134 1.809-2.5396.835-.6494 1.762-.9741 2.783-.9741 1.368 0 2.516.545 3.444 1.6351.928 1.09 1.438 2.4932 1.531 4.2095l-3.236.974c-.046-1.09-.324-1.9829-.835-2.6787-.51-.6958-1.171-1.0437-1.983-1.0437-.997 0-1.797.5103-2.4 1.5307-.58 1.0205-.87 2.4353-.87 4.2443v9.4626h-3.757z"
    fill="currentColor"
    fill-rule="evenodd"
  />
</svg>
