<svg width="42" height="42" viewBox="0 0 42 42" fill="none" xmlns="http://www.w3.org/2000/svg">
<rect width="42" height="42" rx="21" fill="#D33231"/>
<path d="M21.8976 9.28857C20.2391 9.28857 18.6705 9.63826 17.1918 10.3376C15.7132 11.037 14.5342 12.0061 13.655 13.245C12.6959 14.5838 12.2163 16.1024 12.2163 17.8009C12.2163 18.84 12.3961 19.7791 12.7558 20.6184C13.0556 21.3577 13.4552 21.9571 13.9547 22.4167C14.3943 22.8164 14.824 23.0162 15.2436 23.0162C15.4434 23.0162 15.6232 22.7864 15.7831 22.3268C15.903 21.9472 15.9629 21.6174 15.9629 21.3377C15.9629 21.2378 15.873 21.038 15.6932 20.7382C15.4334 20.3186 15.2536 19.9689 15.1537 19.6892C14.9538 19.1896 14.8539 18.6701 14.8539 18.1306C14.8539 16.8717 15.1437 15.7527 15.7231 14.7736C16.3026 13.7745 17.1019 12.9952 18.121 12.4357C19.1401 11.8762 20.269 11.5965 21.5079 11.5965C23.1864 11.5965 24.5252 12.0461 25.5243 12.9453C26.6033 13.8844 27.1428 15.1733 27.1428 16.8118C27.1428 17.8109 27.013 18.81 26.7532 19.8091C26.4535 21.048 26.0039 22.0271 25.4044 22.7464C24.705 23.6256 23.8558 24.0652 22.8567 24.0652C22.2572 24.0652 21.7377 23.8754 21.2981 23.4958C20.8785 23.0961 20.6687 22.5966 20.6687 21.9971C20.6687 21.5975 20.7286 21.1479 20.8485 20.6483C20.9085 20.3686 21.0284 19.929 21.2082 19.3295C21.408 18.7301 21.5479 18.2805 21.6278 17.9807C21.7477 17.4812 21.8077 17.0216 21.8077 16.602C21.8077 15.8626 21.5779 15.3031 21.1183 14.9235C20.7186 14.6038 20.2191 14.5039 19.6196 14.6238C19.0402 14.7437 18.5406 15.0634 18.121 15.5829C17.6814 16.1824 17.4616 16.9317 17.4616 17.8309C17.4616 18.81 17.6114 19.6093 17.9112 20.2287L17.5815 21.6374C17.1019 23.6156 16.7622 25.1243 16.5624 26.1633C16.2227 27.9417 16.0528 29.3705 16.0528 30.4495C16.0528 30.8891 16.1028 31.5585 16.2027 32.4577L16.2627 33.1171L16.3226 33.207C16.3626 33.247 16.3825 33.2669 16.3825 33.2669C16.4025 33.2669 16.4425 33.2569 16.5024 33.237L16.5924 33.207C17.2118 32.3678 17.6814 31.6284 18.0011 30.989C18.3208 30.4095 18.5806 29.7901 18.7804 29.1307C18.9003 28.7111 19.0801 28.0017 19.3199 27.0026C19.5197 26.0634 19.6996 25.2941 19.8594 24.6947C20.1192 25.2342 20.5888 25.6638 21.2681 25.9835C21.8676 26.2633 22.487 26.4031 23.1265 26.4031C24.725 26.4031 26.1038 25.9236 27.2627 24.9644C28.3018 24.1252 29.1011 22.9562 29.6606 21.4576C30.1801 20.0988 30.4399 18.6501 30.4399 17.1115C30.4399 15.5729 30.0302 14.1941 29.211 12.9752C28.4517 11.8163 27.4126 10.9171 26.0938 10.2777C24.795 9.61828 23.3962 9.28857 21.8976 9.28857Z" fill="white"/>
</svg>
