<svg width="20" height="21" viewBox="0 0 20 21" fill="none" xmlns="http://www.w3.org/2000/svg">
<path d="M1.7638 19.9371L1.9084 20.0753L2.04657 19.9307L6.97864 14.769C8.32347 15.8048 10.0153 16.4086 11.8415 16.3671C16.0867 16.2705 19.4612 12.7389 19.3646 8.49372C19.268 4.24854 15.7365 0.874078 11.4912 0.970662C7.24603 1.06725 3.8716 4.59879 3.96819 8.84401C4.00974 10.6702 4.68988 12.3329 5.78576 13.6292L0.85369 18.7909L0.715521 18.9355L0.860123 19.0737L1.7638 19.9371ZM5.6178 8.80648C5.54193 5.47166 8.19396 2.69615 11.5288 2.62028C14.8636 2.54441 17.6391 5.19644 17.715 8.53125C17.7908 11.8661 15.1388 14.6416 11.804 14.7174C8.46919 14.7933 5.69367 12.1413 5.6178 8.80648Z" fill="currentColor" stroke="currentColor" stroke-width="0.4"/>
</svg>
