<svg width="42" height="42" viewBox="0 0 42 42" fill="none" xmlns="http://www.w3.org/2000/svg">
<rect width="42" height="42" rx="21" fill="#489EEB"/>
<path d="M31.5 15.5987C30.7764 15.9185 30.0192 16.1288 29.2283 16.2298C29.6322 15.9774 29.9855 15.6661 30.2884 15.2959C30.5913 14.9088 30.8185 14.4798 30.9699 14.0086C30.1791 14.4798 29.3377 14.8079 28.4459 14.993C28.0757 14.5891 27.6382 14.2778 27.1334 14.0591C26.6286 13.8403 26.0985 13.731 25.5432 13.731C24.8197 13.731 24.155 13.9076 23.5493 14.261C22.9435 14.6144 22.4555 15.1024 22.0853 15.7249C21.7319 16.3307 21.5553 16.987 21.5553 17.6937C21.5553 18.0134 21.5889 18.3163 21.6562 18.6024C20.0408 18.535 18.5096 18.1228 17.0625 17.3656C15.6658 16.6588 14.4627 15.6913 13.4531 14.4629C13.0997 15.0687 12.923 15.7334 12.923 16.4569C12.923 17.13 13.0829 17.761 13.4026 18.3499C13.7223 18.9389 14.1514 19.41 14.6899 19.7634C14.0505 19.7466 13.4531 19.5783 12.8978 19.2586V19.3091C12.8978 20.2682 13.2007 21.118 13.8065 21.8584C14.4122 22.5819 15.1694 23.0362 16.0781 23.2213C15.7416 23.3055 15.3966 23.3475 15.0432 23.3475C14.7908 23.3475 14.5384 23.3307 14.286 23.2971C14.5384 24.0879 15.0012 24.7442 15.6743 25.2658C16.3642 25.7706 17.1382 26.0314 17.9964 26.0483C17.3065 26.5867 16.5408 27.0074 15.6995 27.3103C14.8581 27.6132 13.9831 27.7646 13.0745 27.7646C12.7548 27.7478 12.4351 27.7225 12.1154 27.6889C13.0072 28.261 13.9663 28.6985 14.9928 29.0014C16.036 29.3211 17.1045 29.481 18.1983 29.481C19.9651 29.481 21.5889 29.136 23.0697 28.4461C24.4158 27.8235 25.5937 26.9401 26.6033 25.7959C27.5456 24.7358 28.2776 23.5242 28.7993 22.1612C29.2872 20.8319 29.5312 19.5026 29.5312 18.1733L29.506 17.6432C30.2968 17.0879 30.9615 16.4064 31.5 15.5987Z" fill="white"/>
</svg>
