<svg width="42" height="42" viewBox="0 0 42 42" fill="none" xmlns="http://www.w3.org/2000/svg">
<rect width="42" height="42" rx="21" fill="#EB3725"/>
<path d="M21 13.731C19.9327 13.731 18.851 13.746 17.7549 13.7762C15.5049 13.8366 14.0625 13.9573 13.4279 14.1384C12.9952 14.2591 12.6202 14.4855 12.3029 14.8175C12.0145 15.1193 11.8125 15.4966 11.6972 15.9493C11.5241 16.6133 11.4087 17.6243 11.351 18.9825C11.3222 19.6767 11.3077 20.2954 11.3077 20.8386L11.351 22.7401C11.4087 24.0982 11.5241 25.1093 11.6972 25.7733C11.8125 26.1958 12.0145 26.5731 12.3029 26.9051C12.6202 27.2069 12.9952 27.4182 13.4279 27.5389C14.0625 27.72 15.5049 27.8407 17.7549 27.9011L21 27.9463L24.2452 27.9011C26.4952 27.8407 27.9375 27.72 28.5722 27.5389C29.0049 27.4182 29.3654 27.2069 29.6539 26.9051C29.9712 26.5731 30.1875 26.1958 30.3029 25.7733C30.476 25.1093 30.5914 24.0831 30.6491 22.6948L30.6924 20.8386L30.6491 18.9825C30.5914 17.6243 30.476 16.6133 30.3029 15.9493C30.1875 15.4966 29.9712 15.1193 29.6539 14.8175C29.3654 14.4855 29.0049 14.2591 28.5722 14.1384C27.9375 13.9573 26.4952 13.8366 24.2452 13.7762C23.0914 13.746 22.0097 13.731 21 13.731ZM18.2308 16.7189L25.1539 20.8386L18.2308 24.9584V16.7189Z" fill="white"/>
</svg>
